<svg xmlns="http://www.w3.org/2000/svg" xmlns:xlink="http://www.w3.org/1999/xlink" viewBox="0 0 65 65"><defs><style>.cls-1,.cls-2{fill:none;}.cls-2{clip-rule:evenodd;}.cls-3{clip-path:url(#clip-path);}.cls-4{clip-path:url(#clip-path-2);}.cls-5{clip-path:url(#clip-path-3);}.cls-6{clip-path:url(#clip-path-4);}.cls-7{fill:#835cdd;}.cls-8{opacity:0.8;}.cls-9{fill:#fff;}</style><clipPath id="clip-path"><rect class="cls-1" x="-1132.82" y="65.21" width="65" height="65" rx="6" ry="6"/></clipPath><clipPath id="clip-path-2"><path class="cls-2" d="M-1100.2,92.72a4.15,4.15,0,0,0-4.15,4.14,4.15,4.15,0,0,0,4.15,4.15,4.15,4.15,0,0,0,4.14-4.15,4.15,4.15,0,0,0-4.14-4.14m0,6.72a2.59,2.59,0,0,1-2.58-2.58,2.58,2.58,0,0,1,2.58-2.57,2.57,2.57,0,0,1,2.57,2.57,2.58,2.58,0,0,1-2.57,2.58"/></clipPath><clipPath id="clip-path-3"><path class="cls-2" d="M-1086.08,84.14a2.72,2.72,0,0,0,.25-1.14,2.79,2.79,0,0,0-2.78-2.79,2.79,2.79,0,0,0-2.43,1.42,17.47,17.47,0,0,0-9.16,2.75c-5.68-3.28-10.82-3.67-13.49-1a6.62,6.62,0,0,0-1.76,4.83,2.78,2.78,0,0,0-1.69,2.56,2.79,2.79,0,0,0,2.79,2.78,33.28,33.28,0,0,0,1.67,3.32c-3.29,5.68-3.68,10.82-1,13.49a6.55,6.55,0,0,0,4.81,1.76,18,18,0,0,0,8.68-2.77,18,18,0,0,0,8.68,2.77,6.58,6.58,0,0,0,4.81-1.76c2.66-2.67,2.27-7.81-1-13.49a20.26,20.26,0,0,0,2.66-7.16A7.83,7.83,0,0,0-1086.08,84.14ZM-1087.4,83a1.22,1.22,0,0,1-1.21,1.22,1.22,1.22,0,0,1-1.22-1.22,1.22,1.22,0,0,1,1.22-1.22A1.22,1.22,0,0,1-1087.4,83Zm-1.21,2.78a2.75,2.75,0,0,0,1.45-.41,6.65,6.65,0,0,1,.54,4.12,17.72,17.72,0,0,1-2.05,5.85,35.29,35.29,0,0,0-4.51-5.5,35.29,35.29,0,0,0-5.5-4.51,15.58,15.58,0,0,1,7.29-2.15A2.78,2.78,0,0,0-1088.61,85.78Zm-27,5a1.22,1.22,0,0,1,1.22-1.22,1.22,1.22,0,0,1,1.22,1.22,1.22,1.22,0,0,1-1.22,1.21A1.22,1.22,0,0,1-1115.57,90.76Zm4,0a2.79,2.79,0,0,0-2.32-2.75,5,5,0,0,1,1.3-3.53c2-2,6.18-1.65,10.85.85a34.76,34.76,0,0,0-5.49,4.51,34.8,34.8,0,0,0-4.52,5.5,23,23,0,0,1-1.06-2.27A2.8,2.8,0,0,0-1111.56,90.76Zm-.18,7.63a34.29,34.29,0,0,0,4.52,5.49,34.29,34.29,0,0,0,5.49,4.52c-4.67,2.5-8.85,2.85-10.85.84S-1114.24,103.06-1111.74,98.39Zm.88-1.53a34,34,0,0,1,4.74-5.91,33.19,33.19,0,0,1,5.92-4.74,33.13,33.13,0,0,1,5.91,4.74,33.49,33.49,0,0,1,4.74,5.91,33.19,33.19,0,0,1-4.74,5.92,33.58,33.58,0,0,1-5.91,4.74,33.64,33.64,0,0,1-5.92-4.74A33.64,33.64,0,0,1-1110.86,96.86Zm12.19,11.54a35.2,35.2,0,0,0,5.49-4.52,35.22,35.22,0,0,0,4.51-5.49c2.5,4.67,2.85,8.85.85,10.85S-1094,110.9-1098.67,108.4Z"/></clipPath><clipPath id="clip-path-4"><path class="cls-2" d="M-687.15,439.05a4.16,4.16,0,0,0,0,5.86,4.16,4.16,0,0,0,5.86,0,4.14,4.14,0,0,0,0-5.86,4.14,4.14,0,0,0-5.86,0m4.75,4.75a2.58,2.58,0,0,1-3.64,0,2.58,2.58,0,0,1,0-3.64,2.57,2.57,0,0,1,3.64,0,2.57,2.57,0,0,1,0,3.64"/></clipPath></defs><title>Artboard 75</title><g id="Layer_3" data-name="Layer 3"><rect class="cls-7" width="65" height="65" rx="6.24" ry="6.24"/><g class="cls-8"><path class="cls-9" d="M43.31,49.82h-.1a.75.75,0,0,1,0-1.5h.1a.75.75,0,0,1,0,1.5Zm-3.11,0h-.1a.75.75,0,0,1,0-1.5h.1a.75.75,0,0,1,0,1.5Zm-3.11,0H37a.75.75,0,0,1,0-1.5h.1a.75.75,0,0,1,0,1.5Zm-3.11,0h-.1a.75.75,0,0,1,0-1.5H34a.75.75,0,0,1,0,1.5Zm-3.11,0h-.1a.75.75,0,0,1,0-1.5h.1a.75.75,0,0,1,0,1.5Zm-3.11,0h-.1a.75.75,0,0,1,0-1.5h.1a.75.75,0,0,1,0,1.5Zm18.43-.51a.75.75,0,0,1-.56-.25A.76.76,0,0,1,45.7,48a.78.78,0,0,1,1.08,0,.73.73,0,0,1,0,1l-.11.1A.73.73,0,0,1,46.19,49.31Zm-21.28-.4a.66.66,0,0,1-.58-.31l-.07-.1a.76.76,0,0,1,.24-1,.75.75,0,0,1,1,.24.79.79,0,0,1-.19,1.08A.75.75,0,0,1,24.91,48.91Zm22-2.52a.76.76,0,0,1-.75-.75v-.1a.75.75,0,0,1,1.5,0v.1A.76.76,0,0,1,46.86,46.39Zm-22.25-.5a.76.76,0,0,1-.75-.75V45a.75.75,0,0,1,1.5,0v.1A.75.75,0,0,1,24.61,45.89Zm22.25-2.61a.76.76,0,0,1-.75-.75v-.1a.75.75,0,1,1,1.5,0v.1A.76.76,0,0,1,46.86,43.28Zm0-3.11a.76.76,0,0,1-.75-.75v-.1a.75.75,0,0,1,1.5,0v.1A.76.76,0,0,1,46.86,40.17Zm0-3.11a.76.76,0,0,1-.75-.75v-.1a.75.75,0,1,1,1.5,0v.1A.76.76,0,0,1,46.86,37.06Zm0-3.11a.76.76,0,0,1-.75-.75v-.1a.75.75,0,0,1,1.5,0v.1A.76.76,0,0,1,46.86,34Zm0-3.11a.76.76,0,0,1-.75-.75V30a.75.75,0,1,1,1.5,0v.1A.76.76,0,0,1,46.86,30.84Zm0-3.11a.76.76,0,0,1-.75-.75v-.1a.75.75,0,1,1,1.5,0V27A.76.76,0,0,1,46.86,27.73Zm0-3.12a.75.75,0,0,1-.75-.75v-.1a.75.75,0,0,1,1.5,0v.1A.75.75,0,0,1,46.86,24.61Zm-1.49-2.42-.19,0a.78.78,0,0,1-.61-.9.72.72,0,0,1,.86-.58l.14,0a.75.75,0,0,1,.53.92A.76.76,0,0,1,45.37,22.19Zm-3.1-.06h-.1a.75.75,0,0,1,0-1.5h.1a.75.75,0,0,1,0,1.5Zm-3.11,0h-.1a.75.75,0,0,1,0-1.5h.1a.75.75,0,0,1,0,1.5Z"/></g><g class="cls-8"><path class="cls-9" d="M35.77,44.37H17.53a2.75,2.75,0,0,1-2.75-2.75V17.93a2.75,2.75,0,0,1,2.75-2.75H35.77a2.76,2.76,0,0,1,2.76,2.75V41.62A2.76,2.76,0,0,1,35.77,44.37ZM17.53,16.68a1.25,1.25,0,0,0-1.25,1.25V41.62a1.25,1.25,0,0,0,1.25,1.25H35.77A1.25,1.25,0,0,0,37,41.62V17.93a1.25,1.25,0,0,0-1.26-1.25Z"/></g></g></svg>