<svg xmlns="http://www.w3.org/2000/svg" xmlns:xlink="http://www.w3.org/1999/xlink" viewBox="0 0 65 65"><defs><style>.cls-1{fill:none;clip-rule:evenodd;}.cls-2{clip-path:url(#clip-path);}.cls-3{fill:#835cdd;}.cls-4{opacity:0.8;}.cls-5{fill:#fff;}</style><clipPath id="clip-path"><path class="cls-1" d="M-847.3,568.15a4.14,4.14,0,0,0,0,5.86,4.14,4.14,0,0,0,5.86,0,4.16,4.16,0,0,0,0-5.86,4.16,4.16,0,0,0-5.86,0m4.75,4.75a2.58,2.58,0,0,1-3.65,0,2.57,2.57,0,0,1,0-3.64,2.58,2.58,0,0,1,3.64,0,2.58,2.58,0,0,1,0,3.64"/></clipPath></defs><title>Artboard 60</title><g id="Layer_3" data-name="Layer 3"><rect class="cls-3" width="65" height="65" rx="6.24" ry="6.24"/><g class="cls-4"><path class="cls-5" d="M32.5,49.27c-3.14,0-13.4-.28-13.4-4V43.59a5.54,5.54,0,0,1,3-4.89L27,36.1a.67.67,0,0,0,.36-.58V34a12.14,12.14,0,0,1-1.84-3.7,2.86,2.86,0,0,1-.91-2.08V26.09a2.81,2.81,0,0,1,.55-1.67V21.85a5.4,5.4,0,0,1,1.34-4c1.28-1.42,3.3-2.13,6-2.13s4.73.71,6,2.13a5.44,5.44,0,0,1,1.34,4.07v2.49a2.81,2.81,0,0,1,.55,1.67v2.14A2.88,2.88,0,0,1,39,30.69a13.25,13.25,0,0,1-1.63,3c-.08.12-.17.23-.25.33v1.54a.65.65,0,0,0,.38.59l5.26,2.55a5.53,5.53,0,0,1,3.16,5v1.63C45.9,49,35.64,49.27,32.5,49.27Zm0-32c-2.27,0-3.91.55-4.89,1.63a4,4,0,0,0-1,2.91V25l-.19.21a1.35,1.35,0,0,0-.36.9v2.14a1.36,1.36,0,0,0,.53,1.07l.2.15.07.25a10.33,10.33,0,0,0,1.79,3.59l.16.2v2a2.14,2.14,0,0,1-1.16,1.9L22.79,40a4.06,4.06,0,0,0-2.19,3.57v1.73c0,1.31,5.56,2.45,11.9,2.45s11.9-1.14,11.9-2.45V43.69a4,4,0,0,0-2.32-3.63l-5.25-2.55a2.15,2.15,0,0,1-1.23-1.94V33.49l.18-.21.36-.46a11.36,11.36,0,0,0,1.52-2.91l.11-.31.3-.13a1.36,1.36,0,0,0,.83-1.24V26.09a1.33,1.33,0,0,0-.36-.9L38.35,25V21.85a4,4,0,0,0-1-3C36.41,17.78,34.77,17.23,32.5,17.23Z"/></g></g></svg>