<svg xmlns="http://www.w3.org/2000/svg" xmlns:xlink="http://www.w3.org/1999/xlink" viewBox="0 0 65 65"><defs><style>.cls-1{fill:none;clip-rule:evenodd;}.cls-2{clip-path:url(#clip-path);}.cls-3{fill:#78d096;}.cls-4{fill:#fff;opacity:0.8;}</style><clipPath id="clip-path"><path class="cls-1" d="M-927.38,439.09a4.14,4.14,0,0,0,0,5.86,4.14,4.14,0,0,0,5.86,0,4.16,4.16,0,0,0,0-5.86,4.16,4.16,0,0,0-5.86,0m4.75,4.75a2.57,2.57,0,0,1-3.64,0,2.57,2.57,0,0,1,0-3.64,2.58,2.58,0,0,1,3.64,0,2.58,2.58,0,0,1,0,3.64"/></clipPath></defs><title>Artboard 78</title><g id="Layer_3" data-name="Layer 3"><rect class="cls-3" width="65" height="65" rx="6.24" ry="6.24"/><path class="cls-4" d="M48.34,20.72a.93.93,0,0,0-.94-.3L17,28.67a.92.92,0,0,0-.67.85.9.9,0,0,0,.62.88L27.9,34,27,41.53a.9.9,0,0,0,1.43.83l3.74-2.8,3.25,4.74a.92.92,0,0,0,.75.39h.06A.9.9,0,0,0,37,44.2L48.44,21.7A.92.92,0,0,0,48.34,20.72Zm-29,8.88L43.49,23,28.61,32.68Zm10,5.65,2.09,3.07-2.68,2Zm6.85,7.37L33,38.06l-3-4.47L46,23.2Z"/></g></svg>