<?xml version="1.0" encoding="UTF-8"?>
<svg width="35px" height="35px" viewBox="0 0 35 35" version="1.1" xmlns="http://www.w3.org/2000/svg" xmlns:xlink="http://www.w3.org/1999/xlink">
    <defs>
        <polygon id="path-1" points="0.00042 0.286747826 13.7032 0.286747826 13.7032 16 0.00042 16"></polygon>
    </defs>
    <g id="Page-1" stroke="none" stroke-width="1" fill="none" fill-rule="evenodd">
        <g id="Automation" transform="translate(-865.000000, -225.000000)">
            <g id="Group-2" transform="translate(866.000000, 226.000000)">
                <g id="Group-8">
                    <circle id="Oval-2" stroke="#7ACE4C" fill="#F1FAED" cx="16.5" cy="16.5" r="16.5"></circle>
                    <g id="Page-1" transform="translate(11.000000, 8.000000)">
                        <path d="M5,14.5 C4.72377158,14.5 4.5,14.2755644 4.5,14 C4.5,13.7244356 4.72377158,13.5 5,13.5 C5.27556441,13.5 5.5,13.7244356 5.5,14 C5.5,14.2755644 5.27556441,14.5 5,14.5 M5,13 C4.44820717,13 4,13.4488712 4,14 C4,14.5511288 4.44820717,15 5,15 C5.55112882,15 6,14.5511288 6,14 C6,13.4488712 5.55112882,13 5,13" id="Fill-1" fill="#7ACE4C"></path>
                        <g id="Group-9">
                            <mask id="mask-2" fill="white">
                                <use xlink:href="#path-1"></use>
                            </mask>
                            <g id="Clip-8"></g>
                            <path d="M13.17652,8.4050087 L8.96042,8.4050087 L7.02772,8.4050087 L5.27072,9.71422609 L5.27072,8.4050087 L4.21652,8.4050087 L4.21652,3.95283478 L8.96042,3.95283478 L13.17652,3.95283478 L13.17652,8.4050087 Z M8.43332,12.3333565 L0.52752,12.3333565 L0.52752,2.38135652 L8.43332,2.38135652 L8.43332,3.4290087 L3.68942,3.4290087 L3.68942,8.92883478 L4.74362,8.92883478 L4.74362,10.7618783 L7.20342,8.92883478 L8.43332,8.92883478 L8.43332,12.3333565 Z M7.79912,15.476313 L1.16102,15.476313 C0.81172,15.476313 0.52752,15.1938783 0.52752,14.8460522 L0.52752,12.8571826 L8.43332,12.8571826 L8.43332,14.8460522 C8.43332,15.1938783 8.14842,15.476313 7.79912,15.476313 Z M1.16102,0.810573913 L7.79842,0.810573913 C8.14842,0.810573913 8.43332,1.0930087 8.43332,1.44013913 L8.43332,1.85753043 L0.52752,1.85753043 L0.52752,1.44013913 C0.52752,1.0930087 0.81172,0.810573913 1.16102,0.810573913 Z M13.70362,3.4290087 L8.96042,3.4290087 L8.96042,1.44013913 C8.96042,0.804313043 8.43892,0.286747826 7.79912,0.286747826 L1.16102,0.286747826 C0.52052,0.286747826 0.00042,0.804313043 0.00042,1.44013913 L0.00042,14.8460522 C0.00042,15.4818783 0.52052,16.0001391 1.16102,16.0001391 L7.79842,16.0001391 C8.43892,16.0001391 8.96042,15.4818783 8.96042,14.8460522 L8.96042,8.92883478 L13.70362,8.92883478 L13.70362,3.4290087 Z" id="Fill-7" stroke="#7ACE4C" stroke-width="0.3" fill="#7ACE4C" mask="url(#mask-2)"></path>
                        </g>
                        <path d="M6.24966799,5.753 L8.74966799,5.753 C8.8877822,5.753 9,5.585 9,5.377 C9,5.169 8.8877822,5 8.74966799,5 L6.24966799,5 C6.11155378,5 6,5.169 6,5.377 C6,5.585 6.11155378,5.753 6.24966799,5.753" id="Fill-10" fill="#7ACE4C"></path>
                        <path d="M6,6.376 C6,6.584 6.12014712,6.752 6.26890069,6.752 L12.7303841,6.752 C12.8791377,6.752 13,6.584 13,6.376 C13,6.168 12.8791377,6 12.7303841,6 L6.26890069,6 C6.12014712,6 6,6.168 6,6.376" id="Fill-12" fill="#7ACE4C"></path>
                    </g>
                </g>
            </g>
        </g>
    </g>
</svg>
