<svg xmlns="http://www.w3.org/2000/svg" xmlns:xlink="http://www.w3.org/1999/xlink" viewBox="0 0 65 65"><defs><style>.cls-1{fill:none;clip-rule:evenodd;}.cls-2{clip-path:url(#clip-path);}.cls-3{fill:#07f;}.cls-4,.cls-6{fill:#fff;}.cls-4,.cls-5{opacity:0.8;}</style><clipPath id="clip-path"><path class="cls-1" d="M-1007.46,568.41a4.14,4.14,0,0,0,0,5.86,4.14,4.14,0,0,0,5.86,0,4.16,4.16,0,0,0,0-5.86,4.16,4.16,0,0,0-5.86,0m4.75,4.75a2.57,2.57,0,0,1-3.64,0,2.57,2.57,0,0,1,0-3.64,2.58,2.58,0,0,1,3.64,0,2.58,2.58,0,0,1,0,3.64"/></clipPath></defs><title>Artboard 63</title><g id="Layer_3" data-name="Layer 3"><rect class="cls-3" width="65" height="65" rx="6.24" ry="6.24"/><path class="cls-4" d="M50.15,28.54c0-4.77-4.2-8.4-9.88-8.69v-.8A3.07,3.07,0,0,0,37.2,16H23.92a3.08,3.08,0,0,0-3.07,3.07V46a3.08,3.08,0,0,0,3.07,3.07H37.2A3.08,3.08,0,0,0,40.27,46V37.23C46,36.94,50.15,33.31,50.15,28.54ZM37.2,47.61H23.92A1.57,1.57,0,0,1,22.35,46v-27a1.57,1.57,0,0,1,1.57-1.57H37.2a1.57,1.57,0,0,1,1.57,1.57v.81c-5.65.3-9.82,3.93-9.82,8.68a7.74,7.74,0,0,0,4.31,7.22V41l5.51-3.65V46A1.57,1.57,0,0,1,37.2,47.61Zm2.35-11.85-.51,0H39a1,1,0,0,0-.7.17l-3.52,2.32V35.5a1.07,1.07,0,0,0-.59-1,6.25,6.25,0,0,1-3.72-6c0-4.11,3.91-7.21,9.1-7.21s9.1,3.1,9.1,7.21S44.74,35.76,39.55,35.76Z"/><g class="cls-5"><rect class="cls-6" x="27.35" y="44.3" width="6.14" height="1.5"/></g></g></svg>