<svg xmlns="http://www.w3.org/2000/svg" xmlns:xlink="http://www.w3.org/1999/xlink" viewBox="0 0 65 65"><defs><style>.cls-1,.cls-2{fill:none;}.cls-2{clip-rule:evenodd;}.cls-3{clip-path:url(#clip-path);}.cls-4{clip-path:url(#clip-path-2);}.cls-5{clip-path:url(#clip-path-3);}.cls-6{clip-path:url(#clip-path-4);}.cls-7{fill:#835cdd;}.cls-10,.cls-8{opacity:0.8;}.cls-10,.cls-9{fill:#fff;}</style><clipPath id="clip-path"><rect class="cls-1" x="-970.98" y="65.21" width="65" height="65" rx="6" ry="6"/></clipPath><clipPath id="clip-path-2"><path class="cls-2" d="M-938.37,92.72a4.15,4.15,0,0,0-4.14,4.14,4.15,4.15,0,0,0,4.14,4.15,4.15,4.15,0,0,0,4.15-4.15,4.15,4.15,0,0,0-4.15-4.14m0,6.72a2.58,2.58,0,0,1-2.57-2.58,2.58,2.58,0,0,1,2.57-2.57,2.58,2.58,0,0,1,2.58,2.57,2.59,2.59,0,0,1-2.58,2.58"/></clipPath><clipPath id="clip-path-3"><path class="cls-2" d="M-924.24,84.14A2.72,2.72,0,0,0-924,83a2.79,2.79,0,0,0-2.79-2.79,2.77,2.77,0,0,0-2.42,1.42,17.45,17.45,0,0,0-9.16,2.75c-5.69-3.28-10.83-3.67-13.5-1a6.57,6.57,0,0,0-1.75,4.83,2.78,2.78,0,0,0-1.69,2.56,2.79,2.79,0,0,0,2.79,2.78,33.14,33.14,0,0,0,1.66,3.32c-3.28,5.68-3.67,10.82-1,13.49a6.58,6.58,0,0,0,4.81,1.76,18,18,0,0,0,8.69-2.77,18,18,0,0,0,8.67,2.77,6.55,6.55,0,0,0,4.81-1.76c2.67-2.67,2.28-7.81-1-13.49a20.11,20.11,0,0,0,2.67-7.16A7.83,7.83,0,0,0-924.24,84.14ZM-925.56,83a1.22,1.22,0,0,1-1.22,1.22A1.22,1.22,0,0,1-928,83a1.22,1.22,0,0,1,1.22-1.22A1.22,1.22,0,0,1-925.56,83Zm-1.22,2.78a2.76,2.76,0,0,0,1.46-.41,6.65,6.65,0,0,1,.54,4.12,18,18,0,0,1-2.05,5.85,35.29,35.29,0,0,0-4.51-5.5,35.76,35.76,0,0,0-5.5-4.51,15.55,15.55,0,0,1,7.28-2.15A2.8,2.8,0,0,0-926.78,85.78Zm-27,5a1.21,1.21,0,0,1,1.22-1.22,1.22,1.22,0,0,1,1.22,1.22A1.22,1.22,0,0,1-952.51,92,1.21,1.21,0,0,1-953.73,90.76Zm4,0A2.79,2.79,0,0,0-952,88a5.07,5.07,0,0,1,1.3-3.53c2-2,6.19-1.65,10.86.85a35.29,35.29,0,0,0-5.5,4.51,35.29,35.29,0,0,0-4.51,5.5A20.88,20.88,0,0,1-951,93.07,2.79,2.79,0,0,0-949.73,90.76Zm-.17,7.63a34.76,34.76,0,0,0,4.51,5.49,34.8,34.8,0,0,0,5.5,4.52c-4.67,2.5-8.85,2.85-10.86.84S-952.4,103.06-949.9,98.39Zm.88-1.53A33.49,33.49,0,0,1-944.28,91a33.19,33.19,0,0,1,5.92-4.74A33.49,33.49,0,0,1-932.45,91a34,34,0,0,1,4.74,5.91,33.64,33.64,0,0,1-4.74,5.92,34,34,0,0,1-5.91,4.74,33.64,33.64,0,0,1-5.92-4.74A33.19,33.19,0,0,1-949,96.86Zm12.18,11.54a35.26,35.26,0,0,0,5.5-4.52,35.22,35.22,0,0,0,4.51-5.49c2.5,4.67,2.85,8.85.85,10.85S-932.17,110.9-936.84,108.4Z"/></clipPath><clipPath id="clip-path-4"><path class="cls-2" d="M-525.31,439.05a4.16,4.16,0,0,0,0,5.86,4.16,4.16,0,0,0,5.86,0,4.15,4.15,0,0,0,0-5.86,4.14,4.14,0,0,0-5.86,0m4.75,4.75a2.58,2.58,0,0,1-3.64,0,2.57,2.57,0,0,1,0-3.64,2.57,2.57,0,0,1,3.64,0,2.58,2.58,0,0,1,0,3.64"/></clipPath></defs><title>Artboard 46</title><g id="Layer_3" data-name="Layer 3"><rect class="cls-7" width="65" height="65" rx="6.24" ry="6.24"/><g class="cls-8"><rect class="cls-9" x="34.94" y="27.64" width="5.59" height="1.5" transform="translate(-9.02 35) rotate(-45)"/><rect class="cls-9" x="40.02" y="24.62" width="1.47" height="1.5" transform="translate(-6 36.25) rotate(-45)"/><polygon class="cls-9" points="35.78 31.45 34.73 30.41 34.66 31.52 35.78 31.45"/></g><path class="cls-10" d="M49.62,27.46H46.09a8.62,8.62,0,0,0-17.18,0H15.38a1.76,1.76,0,0,0-1.76,1.76V41.66a1.76,1.76,0,0,0,1.76,1.76H49.62a1.76,1.76,0,0,0,1.76-1.76V29.22A1.76,1.76,0,0,0,49.62,27.46ZM37.5,21.08a7.13,7.13,0,1,1-7.13,7.13A7.13,7.13,0,0,1,37.5,21.08ZM49.88,41.66a.26.26,0,0,1-.26.26H15.38a.26.26,0,0,1-.26-.26V29.22a.26.26,0,0,1,.26-.26H28.91a8.62,8.62,0,0,0,17.18,0h3.53a.26.26,0,0,1,.26.26Z"/></g></svg>