<svg xmlns="http://www.w3.org/2000/svg" xmlns:xlink="http://www.w3.org/1999/xlink" viewBox="0 0 65 65"><defs><style>.cls-1{fill:none;clip-rule:evenodd;}.cls-2{clip-path:url(#clip-path);}.cls-3{fill:#fcc52d;}.cls-4,.cls-6{opacity:0.8;}.cls-5,.cls-6{fill:#fff;}</style><clipPath id="clip-path"><path class="cls-1" d="M-1087.54,568.41a4.16,4.16,0,0,0,0,5.86,4.14,4.14,0,0,0,5.86,0,4.15,4.15,0,0,0,0-5.86,4.16,4.16,0,0,0-5.86,0m4.75,4.75a2.57,2.57,0,0,1-3.64,0,2.57,2.57,0,0,1,0-3.64,2.58,2.58,0,0,1,3.64,0,2.58,2.58,0,0,1,0,3.64"/></clipPath></defs><title>Artboard 64</title><g id="Layer_3" data-name="Layer 3"><rect class="cls-3" width="65" height="65" rx="6.24" ry="6.24"/><g id="Oval" class="cls-4"><path class="cls-5" d="M32.64,46.86a14.3,14.3,0,1,1,14.3-14.29A14.31,14.31,0,0,1,32.64,46.86Zm0-27.09a12.8,12.8,0,1,0,12.8,12.8A12.81,12.81,0,0,0,32.64,19.77Z"/></g><polygon class="cls-6" points="33.4 31.82 33.4 23.85 31.89 23.85 31.89 31.82 31.89 33.32 33.4 33.32 38.18 33.32 38.18 31.82 33.4 31.82"/></g></svg>