<?xml version="1.0" encoding="UTF-8"?>
<svg width="12px" height="14px" viewBox="0 0 12 14" version="1.1" xmlns="http://www.w3.org/2000/svg" xmlns:xlink="http://www.w3.org/1999/xlink">
    <!-- Generator: sketchtool 50.2 (55047) - http://www.bohemiancoding.com/sketch -->
    <title>73522496-A578-48AB-A510-38098DE45887</title>
    <desc>Created with sketchtool.</desc>
    <defs></defs>
    <g id="Page-1" stroke="none" stroke-width="1" fill="none" fill-rule="evenodd">
        <g id="Automation" transform="translate(-1272.000000, -210.000000)" fill="#FF0A53" fill-rule="nonzero" stroke="#FF0A53" stroke-width="0.2">
            <g id="garbage-2" transform="translate(1273.000000, 211.000000)">
                <path d="M10.4327,1.73878334 L7.91891613,1.73878334 L7.91891613,1.32892727 C7.91891613,0.596154288 7.32276184,0 6.58998886,0 L4.20040375,0 C3.46763078,0 2.87147649,0.596154288 2.87147649,1.32892727 L2.87147649,1.73878334 L0.357692573,1.73878334 C0.171394358,1.73878334 0.0223557858,1.88782191 0.0223557858,2.07412013 C0.0223557858,2.26041834 0.171394358,2.40945691 0.357692573,2.40945691 L0.963782766,2.40945691 L0.963782766,10.2886294 C0.963782766,11.2772519 1.76859105,12.0820602 2.75721358,12.0820602 L8.03317903,12.0820602 C9.02180156,12.0820602 9.82660985,11.2772519 9.82660985,10.2886294 L9.82660985,2.40945691 L10.4327,2.40945691 C10.6189983,2.40945691 10.7680368,2.26041834 10.7680368,2.07412013 C10.7680368,1.88782191 10.6189983,1.73878334 10.4327,1.73878334 Z M3.54215006,1.32892727 C3.54215006,0.966266742 3.83774323,0.670673574 4.20040375,0.670673574 L6.58998886,0.670673574 C6.95264938,0.670673574 7.24824255,0.966266742 7.24824255,1.32892727 L7.24824255,1.73878334 L3.54215006,1.73878334 L3.54215006,1.32892727 Z M9.15593627,10.2886294 C9.15593627,10.9071395 8.65168911,11.4113867 8.03317903,11.4113867 L2.75721358,11.4113867 C2.13870351,11.4113867 1.63445634,10.9071395 1.63445634,10.2886294 L1.63445634,2.40945691 L9.15842025,2.40945691 L9.15842025,10.2886294 L9.15593627,10.2886294 Z" id="Shape"></path>
                <path d="M5.39519631,10.2091422 C5.58149452,10.2091422 5.73053309,10.0601036 5.73053309,9.8738054 L5.73053309,3.94703818 C5.73053309,3.76073997 5.58149452,3.6117014 5.39519631,3.6117014 C5.20889809,3.6117014 5.05985952,3.76073997 5.05985952,3.94703818 L5.05985952,9.87132142 C5.05985952,10.0576196 5.20889809,10.2091422 5.39519631,10.2091422 Z" id="Shape"></path>
                <path d="M3.20681327,9.83902973 C3.39311149,9.83902973 3.54215006,9.68999116 3.54215006,9.50369294 L3.54215006,4.31466666 C3.54215006,4.12836845 3.39311149,3.97932987 3.20681327,3.97932987 C3.02051506,3.97932987 2.87147649,4.12836845 2.87147649,4.31466666 L2.87147649,9.50369294 C2.87147649,9.68999116 3.02299904,9.83902973 3.20681327,9.83902973 Z" id="Shape"></path>
                <path d="M7.58357934,9.83902973 C7.76987755,9.83902973 7.91891613,9.68999116 7.91891613,9.50369294 L7.91891613,4.31466666 C7.91891613,4.12836845 7.76987755,3.97932987 7.58357934,3.97932987 C7.39728112,3.97932987 7.24824255,4.12836845 7.24824255,4.31466666 L7.24824255,9.50369294 C7.24824255,9.68999116 7.39728112,9.83902973 7.58357934,9.83902973 Z" id="Shape"></path>
            </g>
        </g>
    </g>
</svg>