<svg xmlns="http://www.w3.org/2000/svg" xmlns:xlink="http://www.w3.org/1999/xlink" viewBox="0 0 65 65"><defs><style>.cls-1,.cls-2{fill:none;}.cls-2{clip-rule:evenodd;}.cls-3{clip-path:url(#clip-path);}.cls-4{clip-path:url(#clip-path-2);}.cls-5{clip-path:url(#clip-path-3);}.cls-6{clip-path:url(#clip-path-4);}.cls-7{fill:#835cdd;}.cls-10,.cls-8{fill:#fff;}.cls-8,.cls-9{opacity:0.8;}</style><clipPath id="clip-path"><rect class="cls-1" x="-520" y="65.21" width="65" height="65" rx="6" ry="6"/></clipPath><clipPath id="clip-path-2"><path class="cls-2" d="M-487.39,92.72a4.15,4.15,0,0,0-4.14,4.14,4.15,4.15,0,0,0,4.14,4.15,4.15,4.15,0,0,0,4.15-4.15,4.15,4.15,0,0,0-4.15-4.14m0,6.72A2.58,2.58,0,0,1-490,96.86a2.57,2.57,0,0,1,2.57-2.57,2.58,2.58,0,0,1,2.58,2.57,2.59,2.59,0,0,1-2.58,2.58"/></clipPath><clipPath id="clip-path-3"><path class="cls-2" d="M-473.26,84.14A2.72,2.72,0,0,0-473,83a2.79,2.79,0,0,0-2.79-2.79,2.77,2.77,0,0,0-2.42,1.42c-2.63-.13-5.84.83-9.17,2.75-5.68-3.28-10.82-3.67-13.49-1a6.57,6.57,0,0,0-1.75,4.83,2.78,2.78,0,0,0-1.69,2.56,2.79,2.79,0,0,0,2.79,2.78,33.14,33.14,0,0,0,1.66,3.32c-3.28,5.68-3.67,10.82-1,13.49a6.58,6.58,0,0,0,4.81,1.76,18,18,0,0,0,8.68-2.77,18,18,0,0,0,8.68,2.77,6.55,6.55,0,0,0,4.81-1.76c2.67-2.67,2.28-7.81-1-13.49a20.11,20.11,0,0,0,2.67-7.16A7.83,7.83,0,0,0-473.26,84.14ZM-474.58,83a1.22,1.22,0,0,1-1.22,1.22A1.22,1.22,0,0,1-477,83a1.22,1.22,0,0,1,1.22-1.22A1.22,1.22,0,0,1-474.58,83Zm-1.22,2.78a2.76,2.76,0,0,0,1.46-.41,6.65,6.65,0,0,1,.54,4.12,18,18,0,0,1-2.05,5.85,34.8,34.8,0,0,0-4.52-5.5,35.22,35.22,0,0,0-5.49-4.51,15.55,15.55,0,0,1,7.28-2.15A2.8,2.8,0,0,0-475.8,85.78Zm-26.95,5a1.21,1.21,0,0,1,1.22-1.22,1.22,1.22,0,0,1,1.22,1.22A1.22,1.22,0,0,1-501.53,92,1.21,1.21,0,0,1-502.75,90.76Zm4,0A2.79,2.79,0,0,0-501.07,88a5.07,5.07,0,0,1,1.3-3.53c2-2,6.19-1.65,10.86.85a35.29,35.29,0,0,0-5.5,4.51,35.29,35.29,0,0,0-4.51,5.5A20.88,20.88,0,0,1-500,93.07,2.79,2.79,0,0,0-498.75,90.76Zm-.17,7.63a34.76,34.76,0,0,0,4.51,5.49,34.8,34.8,0,0,0,5.5,4.52c-4.67,2.5-8.85,2.85-10.86.84S-501.42,103.06-498.92,98.39Zm.88-1.53A33.49,33.49,0,0,1-493.3,91a33.49,33.49,0,0,1,5.91-4.74A33.19,33.19,0,0,1-481.47,91a34,34,0,0,1,4.74,5.91,33.64,33.64,0,0,1-4.74,5.92,33.64,33.64,0,0,1-5.92,4.74,34,34,0,0,1-5.91-4.74A33.19,33.19,0,0,1-498,96.86Zm12.18,11.54a34.74,34.74,0,0,0,5.49-4.52,34.74,34.74,0,0,0,4.52-5.49c2.5,4.67,2.85,8.85.84,10.85S-481.19,110.9-485.86,108.4Z"/></clipPath><clipPath id="clip-path-4"><path class="cls-2" d="M-74.33,439.05a4.14,4.14,0,0,0,0,5.86,4.16,4.16,0,0,0,5.86,0,4.16,4.16,0,0,0,0-5.86,4.14,4.14,0,0,0-5.86,0m4.75,4.75a2.58,2.58,0,0,1-3.64,0,2.57,2.57,0,0,1,0-3.64,2.57,2.57,0,0,1,3.64,0,2.58,2.58,0,0,1,0,3.64"/></clipPath></defs><title>Artboard 55</title><g id="Layer_3" data-name="Layer 3"><rect class="cls-7" width="65" height="65" rx="6.24" ry="6.24"/><path class="cls-8" d="M49.93,27.64H42V23.29a2.75,2.75,0,0,0-2.75-2.75H14.41a2.76,2.76,0,0,0-2.76,2.75V33.94a2.76,2.76,0,0,0,2.76,2.75h7.9V41a2.77,2.77,0,0,0,2.76,2.76H49.93A2.76,2.76,0,0,0,52.68,41V30.4A2.76,2.76,0,0,0,49.93,27.64Zm-36.78,6.3V23.29A1.26,1.26,0,0,1,14.41,22H39.27a1.25,1.25,0,0,1,1.25,1.25V33.94a1.25,1.25,0,0,1-1.25,1.25H14.41A1.26,1.26,0,0,1,13.15,33.94Zm38,7.1a1.25,1.25,0,0,1-1.25,1.26H25.07A1.26,1.26,0,0,1,23.81,41V36.69H39.27A2.75,2.75,0,0,0,42,33.94v-4.8h7.91a1.25,1.25,0,0,1,1.25,1.26Z"/><g class="cls-9"><polygon class="cls-10" points="25.59 32.08 22.47 28.96 23.54 27.9 25.59 29.96 31.07 24.48 32.13 25.54 25.59 32.08"/></g></g></svg>