<svg xmlns="http://www.w3.org/2000/svg" xmlns:xlink="http://www.w3.org/1999/xlink" viewBox="0 0 65 65"><defs><style>.cls-1,.cls-2{fill:none;}.cls-2{clip-rule:evenodd;}.cls-3{clip-path:url(#clip-path);}.cls-4{clip-path:url(#clip-path-2);}.cls-5{clip-path:url(#clip-path-3);}.cls-6{clip-path:url(#clip-path-4);}.cls-7{fill:#835cdd;}.cls-10,.cls-8{fill:#fff;}.cls-8,.cls-9{opacity:0.8;}</style><clipPath id="clip-path"><rect class="cls-1" x="-600.08" y="65.21" width="65" height="65" rx="6" ry="6"/></clipPath><clipPath id="clip-path-2"><path class="cls-2" d="M-567.46,92.72a4.15,4.15,0,0,0-4.15,4.14,4.15,4.15,0,0,0,4.15,4.15,4.15,4.15,0,0,0,4.14-4.15,4.15,4.15,0,0,0-4.14-4.14m0,6.72A2.59,2.59,0,0,1-570,96.86a2.58,2.58,0,0,1,2.58-2.57,2.58,2.58,0,0,1,2.57,2.57,2.58,2.58,0,0,1-2.57,2.58"/></clipPath><clipPath id="clip-path-3"><path class="cls-2" d="M-553.34,84.14a2.72,2.72,0,0,0,.25-1.14,2.79,2.79,0,0,0-2.79-2.79,2.78,2.78,0,0,0-2.42,1.42,17.47,17.47,0,0,0-9.16,2.75c-5.69-3.28-10.83-3.67-13.5-1a6.61,6.61,0,0,0-1.75,4.83,2.78,2.78,0,0,0-1.69,2.56,2.79,2.79,0,0,0,2.79,2.78,33.14,33.14,0,0,0,1.66,3.32c-3.28,5.68-3.67,10.82-1,13.49a6.58,6.58,0,0,0,4.81,1.76,18,18,0,0,0,8.69-2.77,18,18,0,0,0,8.68,2.77,6.54,6.54,0,0,0,4.8-1.76c2.67-2.67,2.28-7.81-1-13.49a20.11,20.11,0,0,0,2.67-7.16A7.83,7.83,0,0,0-553.34,84.14ZM-554.66,83a1.22,1.22,0,0,1-1.22,1.22A1.22,1.22,0,0,1-557.1,83a1.22,1.22,0,0,1,1.22-1.22A1.22,1.22,0,0,1-554.66,83Zm-1.22,2.78a2.76,2.76,0,0,0,1.46-.41,6.65,6.65,0,0,1,.54,4.12,17.72,17.72,0,0,1-2,5.85,35.29,35.29,0,0,0-4.51-5.5,35.29,35.29,0,0,0-5.5-4.51,15.58,15.58,0,0,1,7.28-2.15A2.8,2.8,0,0,0-555.88,85.78Zm-27,5a1.22,1.22,0,0,1,1.22-1.22,1.22,1.22,0,0,1,1.22,1.22A1.22,1.22,0,0,1-581.61,92,1.22,1.22,0,0,1-582.83,90.76Zm4,0A2.79,2.79,0,0,0-581.14,88a5,5,0,0,1,1.29-3.53c2-2,6.19-1.65,10.86.85a35.29,35.29,0,0,0-5.5,4.51,35.29,35.29,0,0,0-4.51,5.5,20.88,20.88,0,0,1-1.06-2.27A2.8,2.8,0,0,0-578.82,90.76Zm-.18,7.63a34.76,34.76,0,0,0,4.51,5.49,34.8,34.8,0,0,0,5.5,4.52c-4.67,2.5-8.85,2.85-10.86.84S-581.5,103.06-579,98.39Zm.88-1.53A33.49,33.49,0,0,1-573.38,91a33.19,33.19,0,0,1,5.92-4.74A33.49,33.49,0,0,1-561.55,91a34,34,0,0,1,4.74,5.91,33.64,33.64,0,0,1-4.74,5.92,34,34,0,0,1-5.91,4.74,33.64,33.64,0,0,1-5.92-4.74A33.19,33.19,0,0,1-578.12,96.86Zm12.18,11.54a34.8,34.8,0,0,0,5.5-4.52,35.22,35.22,0,0,0,4.51-5.49c2.5,4.67,2.85,8.85.85,10.85S-561.27,110.9-565.94,108.4Z"/></clipPath><clipPath id="clip-path-4"><path class="cls-2" d="M-154.41,439.05a4.16,4.16,0,0,0,0,5.86,4.16,4.16,0,0,0,5.86,0,4.14,4.14,0,0,0,0-5.86,4.14,4.14,0,0,0-5.86,0m4.75,4.75a2.58,2.58,0,0,1-3.64,0,2.58,2.58,0,0,1,0-3.64,2.57,2.57,0,0,1,3.64,0,2.57,2.57,0,0,1,0,3.64"/></clipPath></defs><title>Artboard 54</title><g id="Layer_3" data-name="Layer 3"><rect class="cls-7" width="65" height="65" rx="6.24" ry="6.24"/><path class="cls-8" d="M44.86,20.63H38.53V17.92a2.75,2.75,0,0,0-2.75-2.74H17.52a2.74,2.74,0,0,0-2.74,2.74V41.63a2.74,2.74,0,0,0,2.74,2.74h6.34v2.71a2.75,2.75,0,0,0,2.75,2.74H44.86a2.75,2.75,0,0,0,2.75-2.74V23.37A2.75,2.75,0,0,0,44.86,20.63Zm-28.58,21V17.92a1.25,1.25,0,0,1,1.24-1.24H35.78A1.25,1.25,0,0,1,37,17.92V41.63a1.24,1.24,0,0,1-1.25,1.24H17.52A1.24,1.24,0,0,1,16.28,41.63Zm29.83,5.45a1.25,1.25,0,0,1-1.25,1.24H26.61a1.25,1.25,0,0,1-1.25-1.24V44.37H35.78a2.75,2.75,0,0,0,2.75-2.74V22.13h6.33a1.24,1.24,0,0,1,1.25,1.24Z"/><g class="cls-9"><polygon class="cls-10" points="24.95 33.84 21.83 30.72 22.89 29.66 24.95 31.72 30.42 26.24 31.48 27.3 24.95 33.84"/></g></g></svg>