<svg id="Layer_1" data-name="Layer 1" xmlns="http://www.w3.org/2000/svg" viewBox="0 0 21.67 21.67"><defs><style>.contacts-inside-class-svg.contacts-inside-class-svg-b</style></defs><title>Artboard 5</title><path class="contacts-inside-class-svg" d="M18.74,20.67H2.93A1.94,1.94,0,0,1,1,18.74V2.93A1.94,1.94,0,0,1,2.93,1H18.74a1.94,1.94,0,0,1,1.93,1.93V18.74A1.94,1.94,0,0,1,18.74,20.67ZM3.5,18.17H18.17V3.5H3.5Z"/><rect class="contacts-inside-class-svg-b" x="9.66" y="5.6" width="6.17" height="2.5"/><rect class="contacts-inside-class-svg-b" x="5.78" y="5.6" width="2.49" height="2.49"/><rect class="contacts-inside-class-svg-b" x="9.66" y="9.58" width="6.17" height="2.5"/><rect class="contacts-inside-class-svg-b" x="5.78" y="9.59" width="2.49" height="2.49"/><rect class="contacts-inside-class-svg-b" x="9.66" y="13.57" width="6.17" height="2.5"/><rect class="contacts-inside-class-svg-b" x="5.78" y="13.57" width="2.49" height="2.49"/></svg>