<?xml version="1.0" encoding="UTF-8"?>
<svg width="21px" height="21px" viewBox="0 0 21 21" version="1.1" xmlns="http://www.w3.org/2000/svg" xmlns:xlink="http://www.w3.org/1999/xlink">
    <defs></defs>
    <g id="Page-1" stroke="none" stroke-width="1" fill="none" fill-rule="evenodd">
        <g id="Menu---Texting" transform="translate(-915.000000, -29.000000)" fill="#78909C">
            <g id="Nav-Bar" transform="translate(21.000000, 22.000000)">
                <g id="Nav-Icons" transform="translate(84.000000, 4.000000)">
                    <path d="M826.211188,21.3775482 C826.077312,21.4749127 825.940393,21.5682203 825.803474,21.6584853 C825.739579,21.6990539 825.677712,21.7406366 825.611788,21.780191 C825.432272,21.8917544 825.2487,21.9982469 825.062084,22.0976398 C825.020502,22.1189383 824.978919,22.1402367 824.937336,22.1615352 C824.50731,22.3816196 824.063084,22.5712775 823.605674,22.7254379 C823.589446,22.730509 823.573219,22.7355801 823.556992,22.7416653 C823.317637,22.820774 823.07524,22.8917689 822.8298,22.9526217 L822.827772,22.9526217 C822.580304,23.0134746 822.329793,23.0641852 822.078268,23.1067822 C822.071169,23.1077964 822.064069,23.1088106 822.05697,23.1098248 C821.820658,23.1483649 821.581304,23.1757487 821.340935,23.1970472 C821.298338,23.201104 821.256755,23.2041467 821.213144,23.2071893 C820.976832,23.224431 820.738492,23.2366015 820.499138,23.2366015 C820.256741,23.2366015 820.016372,23.224431 819.774989,23.2061751 C819.733407,23.2031325 819.691824,23.201104 819.651255,23.1970472 C819.408858,23.1757487 819.16849,23.1473507 818.929135,23.1077964 C818.918993,23.105768 818.907837,23.1047538 818.897695,23.1027253 C818.392617,23.0175314 817.895652,22.8937974 817.411872,22.7315232 C817.397673,22.7264521 817.38246,22.7213811 817.367247,22.71631 C817.126878,22.6341587 816.889552,22.5438937 816.656283,22.4445008 L816.652226,22.4424724 C816.430113,22.3471363 816.214086,22.2416581 816.000087,22.1300946 C815.971689,22.1158956 815.944305,22.1016966 815.916921,22.0874976 C815.721178,21.9830337 815.530506,21.870456 815.341862,21.7528072 C815.287095,21.7173097 815.231313,21.6818123 815.176546,21.6463148 C815.003115,21.5327229 814.831713,21.4150741 814.665382,21.2903259 C814.64814,21.2771411 814.631913,21.2629421 814.613657,21.2507715 C814.626842,21.243672 814.639012,21.2365725 814.651183,21.229473 L817.670497,19.5823904 C818.189774,19.2994248 818.512294,18.7558064 818.512294,18.1645199 L818.51128,16.7892464 L818.424057,16.6837682 C818.414929,16.6736261 817.590374,15.6695548 817.277996,14.3094945 L817.243513,14.1583767 L817.112679,14.074197 C816.930121,13.955534 816.819571,13.7567481 816.819571,13.5427491 L816.819571,12.1887741 C816.819571,12.0112867 816.894623,11.8469842 817.031542,11.7222359 L817.158319,11.608644 L817.158319,9.48183833 L817.154262,9.43214187 C817.153248,9.42199974 817.04067,8.50413654 817.687738,7.76680334 C818.240485,7.13799099 819.185731,6.81851374 820.499138,6.81851374 C821.807473,6.81851374 822.750692,7.13494835 823.304452,7.75970385 C823.950506,8.48892334 823.844014,9.42504238 823.843,9.43214187 L823.839957,11.6096582 L823.96572,11.7232501 C824.103653,11.8469842 824.178704,12.012301 824.178704,12.1897883 L824.178704,13.5437633 C824.178704,13.8155725 823.993103,14.0630406 823.728394,14.1451919 L823.537721,14.2030021 L823.476869,14.39266 C823.251713,15.0924673 822.931222,15.7385213 822.523508,16.3135803 C822.424115,16.454556 822.326751,16.5803185 822.242571,16.6756545 L822.148249,16.7841754 L822.148249,18.1959605 C822.148249,18.8115881 822.490039,19.3653487 823.040757,19.6402005 L826.274069,21.2568568 C826.294354,21.2669989 826.314638,21.2771411 826.334922,21.2882974 C826.294354,21.3187238 826.251757,21.348136 826.211188,21.3775482 M810.763703,13.5001521 C810.763703,8.13090598 815.129892,3.76370275 820.499138,3.76370275 C825.86737,3.76370275 830.235587,8.13090598 830.235587,13.5001521 C830.235587,16.392689 828.965792,18.9941465 826.955621,20.778148 C826.844057,20.7010678 826.73148,20.6321013 826.614845,20.5732769 L823.382547,18.9576349 C823.092482,18.8126023 822.911952,18.5205088 822.911952,18.1959605 L822.911952,17.0671409 C822.985989,16.9748475 823.065098,16.8703835 823.147249,16.7547632 C823.566119,16.1644909 823.901824,15.5062664 824.14625,14.7993596 C824.630029,14.5691331 824.942407,14.0873817 824.942407,13.5437633 L824.942407,12.1897883 C824.942407,11.8591547 824.820702,11.5376491 824.60366,11.2851099 L824.60366,9.50313682 C824.623944,9.30536519 824.693925,8.18668772 823.884583,7.26476767 C823.181733,6.46049639 822.042771,6.05481099 820.499138,6.05481099 C818.956519,6.05481099 817.817557,6.46049639 817.113693,7.26375346 C816.304351,8.18668772 816.375346,9.30536519 816.394616,9.50313682 L816.394616,11.2851099 C816.177574,11.5376491 816.055869,11.8581405 816.055869,12.1897883 L816.055869,13.5427491 C816.055869,13.9636477 816.244512,14.3561483 816.567032,14.6198438 C816.877382,15.8318289 817.513293,16.7486779 817.748591,17.0600414 L817.748591,18.1645199 C817.748591,18.4758835 817.578203,18.7629059 817.30538,18.9119952 L814.286066,20.5590779 C814.188702,20.611817 814.09438,20.6726698 813.999044,20.7406221 C812.013214,18.9566206 810.763703,16.3713905 810.763703,13.5001521 M830.99929,13.5001521 C830.99929,7.71000739 826.288268,3 820.499138,3 C814.708993,3 810,7.71000739 810,13.5001521 C810,16.5580058 811.314421,19.314638 813.407757,21.2345441 L813.396601,21.243672 L813.737377,21.5306944 C813.760704,21.5489503 813.78403,21.5651777 813.806343,21.5834335 C813.986873,21.7335371 814.174503,21.875527 814.365175,22.0134601 C814.428056,22.0580855 814.488909,22.1027108 814.552804,22.146322 C814.755647,22.2862835 814.965589,22.4201597 815.179588,22.5459221 C815.226242,22.5743201 815.272896,22.6006897 815.31955,22.6270592 C815.553833,22.7609354 815.793187,22.8856837 816.037613,23.001304 C816.054854,23.0094177 816.074125,23.0175314 816.091366,23.0256451 C816.889552,23.3968472 817.740477,23.6686565 818.630957,23.8299164 C818.654284,23.8339733 818.677611,23.8380301 818.701952,23.842087 C818.977818,23.889755 819.257741,23.9282951 819.540706,23.9536504 C819.575189,23.9566931 819.608658,23.9587215 819.643142,23.9617642 C819.926107,23.9850911 820.210087,23.9992901 820.499138,23.9992901 C820.785146,23.9992901 821.067097,23.9850911 821.34702,23.9627784 C821.382518,23.9597357 821.418015,23.9577073 821.454527,23.9546647 C821.73445,23.9293093 822.01133,23.8917834 822.286182,23.8451296 C822.308495,23.8410727 822.33385,23.8360017 822.357177,23.8319448 C823.233457,23.6747417 824.07424,23.4080036 824.860256,23.0469436 C824.889668,23.0337588 824.91908,23.0215883 824.948492,23.0073893 C825.18379,22.89684 825.414016,22.7771628 825.640186,22.6503861 C825.695968,22.6189455 825.75175,22.5864907 825.807531,22.5540358 C826.012402,22.4323302 826.214231,22.3065678 826.410988,22.1716774 C826.481983,22.1240093 826.55095,22.0732987 826.619916,22.022588 C826.787261,21.9018966 826.952578,21.7771483 827.112824,21.647329 C827.148321,21.618931 827.186862,21.5935757 827.221345,21.5641635 L827.570234,21.27207 L827.560092,21.2639563 C829.671685,19.343036 830.99929,16.573219 830.99929,13.5001521" id="Page-1"></path>
                </g>
            </g>
        </g>
    </g>
</svg>
