<svg id="Layer_1" data-name="Layer 1" xmlns="http://www.w3.org/2000/svg" viewBox="0 0 21.95 21.95"><defs><style>.deals-inside-class-svg.deals-inside-class-svg-b</style></defs><title>Artboard 6</title><path class="deals-inside-class-svg" d="M11,3.5A7.48,7.48,0,1,1,3.5,11,7.48,7.48,0,0,1,11,3.5M11,1A10,10,0,1,0,21,11,10,10,0,0,0,11,1Z"/><path class="deals-inside-class-svg-b" d="M10.41,16V15a2.44,2.44,0,0,1-2.28-2.22H9.84a1.24,1.24,0,0,0,1.33,1c.89,0,1.16-.42,1.16-.9S12,12,10.92,11.7c-2-.58-2.62-1.33-2.62-2.45a2.24,2.24,0,0,1,2-2.19V6.28h1.41v.77a2.2,2.2,0,0,1,2.11,2.08h-1.7A1,1,0,0,0,11,8.26c-.77,0-1,.45-1,.83s.29.75,1.58,1.11c1.78.5,2.45,1.22,2.45,2.5A2.26,2.26,0,0,1,11.84,15v1Z"/></svg>