<svg id="Layer_1" data-name="Layer 1" xmlns="http://www.w3.org/2000/svg" viewBox="0 0 21.7 18.72"><defs><style>.email-inside-class-svg</style></defs><title>Artboard 9</title><path class="email-inside-class-svg" d="M18.11,1H3.58A2.42,2.42,0,0,0,1.16,3.43V15.29a2.42,2.42,0,0,0,2.42,2.43H18.11a2.43,2.43,0,0,0,2.43-2.43V3.43A2.43,2.43,0,0,0,18.11,1ZM3.83,3.5H17.88V4a1.5,1.5,0,0,1-.75,1.2l-5.55,3.7a1.52,1.52,0,0,1-1.46,0L4.58,5.19A1.48,1.48,0,0,1,3.83,4ZM3.66,15.22V7.58L8.78,11a3.94,3.94,0,0,0,2,.56A4.08,4.08,0,0,0,12.93,11L18,7.56v7.66Z"/></svg>