<svg id="Layer_1" data-name="Layer 1" xmlns="http://www.w3.org/2000/svg" viewBox="0 0 23.13 18.72"><defs><style>.cls-1{fill:#b5bdc6;}.cls-2{fill:#dfe3eb;}</style></defs><title>Artboard 10</title><path class="cls-1" d="M18.12,13.29v1.93H3.73V3.5H18.12V5.19h1.6a3,3,0,0,1,.9.15V3.43A2.43,2.43,0,0,0,18.19,1H3.66A2.43,2.43,0,0,0,1.23,3.43V15.29a2.43,2.43,0,0,0,2.43,2.43H18.19a2.43,2.43,0,0,0,2.43-2.43V13.15a3.38,3.38,0,0,1-.9.14Z"/><path class="cls-2" d="M21.9,10.11V8.37a2.19,2.19,0,0,0-2.18-2.18H13.29a2.18,2.18,0,0,0-2.18,2.18v1.74a2.17,2.17,0,0,0,2.18,2.18h6.43A2.18,2.18,0,0,0,21.9,10.11Zm-7.57.25a1.21,1.21,0,1,1,1.2-1.21A1.21,1.21,0,0,1,14.33,10.36Z"/></svg>