<svg id="Layer_1" data-name="Layer 1" xmlns="http://www.w3.org/2000/svg" viewBox="0 0 19.35 19.35"><defs><style>.settings-inside-class-svg</style></defs><title>Artboard 12</title><path class="settings-inside-class-svg" d="M10.71,1H8.64a.89.89,0,0,0-.89.89V3.51a.61.61,0,0,1-.39.58.69.69,0,0,1-.24,0A.62.62,0,0,1,6.68,4L5.54,2.81a.92.92,0,0,0-.64-.26.89.89,0,0,0-.63.26L2.81,4.27a.88.88,0,0,0-.26.63.9.9,0,0,0,.26.64L4,6.68a.62.62,0,0,1,.13.68.61.61,0,0,1-.58.39H1.89A.89.89,0,0,0,1,8.64v2.07a.89.89,0,0,0,.89.89H3.51a.61.61,0,0,1,.58.39.62.62,0,0,1-.13.68L2.81,13.81a.9.9,0,0,0-.26.64.88.88,0,0,0,.26.63l1.46,1.46a.89.89,0,0,0,.63.26.92.92,0,0,0,.64-.26l1.14-1.15a.62.62,0,0,1,.44-.18.69.69,0,0,1,.24,0,.61.61,0,0,1,.39.58v1.62a.89.89,0,0,0,.89.89h2.07a.89.89,0,0,0,.89-.89V15.84a.61.61,0,0,1,.39-.58.69.69,0,0,1,.24,0,.64.64,0,0,1,.44.18l1.14,1.15a.92.92,0,0,0,.64.26.89.89,0,0,0,.63-.26l1.46-1.46a.88.88,0,0,0,.26-.63.9.9,0,0,0-.26-.64l-1.15-1.14a.62.62,0,0,1-.13-.68.61.61,0,0,1,.58-.39h1.62a.89.89,0,0,0,.89-.89V8.64a.89.89,0,0,0-.89-.89H15.84a.61.61,0,0,1-.58-.39.62.62,0,0,1,.13-.68l1.15-1.14a.9.9,0,0,0,.26-.64.88.88,0,0,0-.26-.63L15.08,2.81a.89.89,0,0,0-.63-.26.92.92,0,0,0-.64.26L12.67,4a.62.62,0,0,1-.44.18.69.69,0,0,1-.24,0,.61.61,0,0,1-.39-.58V1.89A.89.89,0,0,0,10.71,1Zm-1,11.87a3.2,3.2,0,1,1,3.19-3.19,3.19,3.19,0,0,1-3.19,3.19Z"/></svg>