<?xml version="1.0" encoding="UTF-8"?>
<svg width="21px" height="21px" viewBox="0 0 21 21" version="1.1" xmlns="http://www.w3.org/2000/svg" xmlns:xlink="http://www.w3.org/1999/xlink">
    <defs>
        <polygon id="path-1" points="0.0001 0.671 20.329 0.671 20.329 20.9998 0.0001 20.9998"></polygon>
    </defs>
    <g id="Page-1" stroke="none" stroke-width="1" fill="none" fill-rule="evenodd">
        <g id="Menu---Texting" transform="translate(-1233.000000, -29.000000)">
            <g id="Nav-Bar" transform="translate(21.000000, 22.000000)">
                <g id="Nav-Icons" transform="translate(84.000000, 4.000000)">
                    <g id="Page-1" transform="translate(1128.000000, 2.000000)">
                        <g id="Group-3" transform="translate(0.000000, 0.329200)">
                            <mask id="mask-2" fill="white">
                                <use xlink:href="#path-1"></use>
                            </mask>
                            <g id="Clip-2"></g>
                            <path d="M19.5761,12.0478 C19.5761,12.2098 19.4441,12.3408 19.2831,12.3408 L17.3811,12.3408 C16.7691,12.3408 16.2441,12.6928 16.0111,13.2568 C15.7761,13.8218 15.8991,14.4418 16.3321,14.8738 L17.6771,16.2178 C17.7921,16.3328 17.7921,16.5188 17.6771,16.6328 L15.9631,18.3478 C15.8481,18.4618 15.6621,18.4628 15.5471,18.3478 L14.2031,17.0028 C13.7701,16.5698 13.1501,16.4478 12.5861,16.6808 C12.0211,16.9148 11.6711,17.4408 11.6711,18.0518 L11.6711,19.9538 C11.6711,20.1148 11.5391,20.2468 11.3771,20.2468 L8.9521,20.2468 C8.7911,20.2468 8.6591,20.1148 8.6591,19.9538 L8.6591,18.0518 C8.6591,17.4408 8.3071,16.9148 7.7431,16.6808 C7.5541,16.6028 7.3591,16.5638 7.1661,16.5638 C6.7841,16.5638 6.4141,16.7148 6.1271,17.0028 L4.7821,18.3468 C4.6671,18.4628 4.4801,18.4618 4.3671,18.3468 L2.6521,16.6328 C2.5381,16.5178 2.5381,16.3318 2.6521,16.2168 L3.9971,14.8728 C4.4301,14.4408 4.5531,13.8208 4.3191,13.2558 C4.0851,12.6928 3.5591,12.3408 2.9481,12.3408 L1.0471,12.3408 C0.8851,12.3408 0.7531,12.2098 0.7531,12.0478 L0.7531,9.6228 C0.7531,9.4618 0.8851,9.3298 1.0471,9.3298 L2.9481,9.3298 C3.5591,9.3298 4.0851,8.9788 4.3191,8.4138 C4.5531,7.8488 4.4301,7.2298 3.9971,6.7978 L2.6521,5.4528 C2.5381,5.3388 2.5381,5.1518 2.6521,5.0378 L4.3671,3.3228 C4.4811,3.2088 4.6681,3.2088 4.7821,3.3228 L6.1271,4.6678 C6.5581,5.0998 7.1781,5.2238 7.7431,4.9888 C8.3071,4.7558 8.6591,4.2308 8.6591,3.6188 L8.6591,1.7168 C8.6591,1.5558 8.7911,1.4238 8.9521,1.4238 L11.3771,1.4238 C11.5391,1.4238 11.6711,1.5558 11.6711,1.7168 L11.6711,3.6188 C11.6711,4.2308 12.0211,4.7558 12.5861,4.9898 C13.1511,5.2238 13.7701,5.1008 14.2031,4.6678 L15.5471,3.3238 C15.6621,3.2088 15.8481,3.2088 15.9631,3.3238 L17.6771,5.0378 C17.7921,5.1528 17.7921,5.3388 17.6771,5.4538 L16.3321,6.7978 C15.8991,7.2298 15.7761,7.8498 16.0111,8.4148 C16.2441,8.9788 16.7691,9.3298 17.3811,9.3298 L19.2831,9.3298 C19.4441,9.3298 19.5761,9.4618 19.5761,9.6228 L19.5761,12.0478 Z M19.2831,8.5768 L17.3811,8.5768 C17.0751,8.5768 16.8231,8.4078 16.7061,8.1258 C16.5891,7.8438 16.6481,7.5468 16.8641,7.3298 L18.2091,5.9858 C18.4061,5.7878 18.5151,5.5248 18.5151,5.2458 C18.5151,4.9658 18.4061,4.7028 18.2091,4.5058 L16.4951,2.7908 C16.0991,2.3958 15.4101,2.3948 15.0141,2.7908 L13.6701,4.1348 C13.4541,4.3508 13.1551,4.4118 12.8741,4.2938 C12.5921,4.1768 12.4241,3.9248 12.4241,3.6188 L12.4241,1.7168 C12.4241,1.1398 11.9541,0.6708 11.3771,0.6708 L8.9521,0.6708 C8.3751,0.6708 7.9061,1.1398 7.9061,1.7168 L7.9061,3.6188 C7.9061,3.9248 7.7371,4.1768 7.4551,4.2938 C7.1741,4.4118 6.8761,4.3508 6.6591,4.1348 L5.3151,2.7908 C4.9191,2.3948 4.2291,2.3958 3.8341,2.7908 L2.1201,4.5058 C1.9231,4.7028 1.8131,4.9658 1.8131,5.2458 C1.8131,5.5248 1.9231,5.7878 2.1201,5.9858 L3.4651,7.3298 C3.6801,7.5468 3.7401,7.8438 3.6231,8.1258 C3.5071,8.4078 3.2541,8.5768 2.9481,8.5768 L1.0471,8.5768 C0.4701,8.5768 0.0001,9.0458 0.0001,9.6228 L0.0001,12.0478 C0.0001,12.6248 0.4701,13.0938 1.0471,13.0938 L2.9481,13.0938 C3.2541,13.0938 3.5061,13.2628 3.6231,13.5448 C3.7401,13.8268 3.6801,14.1248 3.4651,14.3408 L2.1201,15.6848 C1.9231,15.8828 1.8131,16.1458 1.8131,16.4248 C1.8131,16.7048 1.9231,16.9678 2.1201,17.1658 L3.8341,18.8798 C4.2301,19.2758 4.9191,19.2768 5.3151,18.8798 L6.6591,17.5348 C6.8761,17.3188 7.1731,17.2598 7.4551,17.3768 C7.7371,17.4938 7.9061,17.7458 7.9061,18.0518 L7.9061,19.9538 C7.9061,20.5308 8.3751,20.9998 8.9521,20.9998 L11.3771,20.9998 C11.9541,20.9998 12.4231,20.5308 12.4231,19.9538 L12.4231,18.0518 C12.4231,17.7458 12.5921,17.4938 12.8741,17.3768 C13.1561,17.2588 13.4531,17.3188 13.6701,17.5348 L15.0141,18.8798 C15.4101,19.2758 16.0991,19.2748 16.4951,18.8798 L18.2091,17.1658 C18.4061,16.9678 18.5141,16.7048 18.5141,16.4248 C18.5141,16.1458 18.4061,15.8828 18.2091,15.6848 L16.8641,14.3408 C16.6481,14.1248 16.5891,13.8268 16.7061,13.5448 C16.8221,13.2628 17.0751,13.0938 17.3811,13.0938 L19.2831,13.0938 C19.8601,13.0938 20.3291,12.6248 20.3291,12.0478 L20.3291,9.6228 C20.3291,9.0458 19.8601,8.5768 19.2831,8.5768 Z" id="Fill-1" fill="#78909C" mask="url(#mask-2)"></path>
                        </g>
                        <path d="M10.1649,13.7998 C8.7119,13.7998 7.5289,12.6168 7.5289,11.1648 C7.5289,9.7118 8.7119,8.5288 10.1649,8.5288 C11.6169,8.5288 12.7999,9.7118 12.7999,11.1648 C12.7999,12.6168 11.6169,13.7998 10.1649,13.7998 M10.1649,7.7768 C8.2959,7.7768 6.7759,9.2968 6.7759,11.1648 C6.7759,13.0328 8.2959,14.5528 10.1649,14.5528 C12.0329,14.5528 13.5529,13.0328 13.5529,11.1648 C13.5529,9.2968 12.0329,7.7768 10.1649,7.7768" id="Fill-4" fill="#78909C"></path>
                    </g>
                </g>
            </g>
        </g>
    </g>
</svg>
