<svg id="Layer_1" data-name="Layer 1" xmlns="http://www.w3.org/2000/svg" viewBox="0 0 21.47 21.38"><defs><style>.nav-icon-svg-inner{fill:#DBE2E5;}.nav-icon-svg-outer{fill:#90a4ae;}</style></defs><title>Artboard 8</title><path class="nav-icon-svg-inner" d="M20.47,6.18a4.85,4.85,0,0,0-4.85-4.92h0A4.8,4.8,0,0,0,13.08,2a4.85,4.85,0,0,0-1.59,6.67,1.44,1.44,0,0,1,0,1.5L11,11h4.53A4.93,4.93,0,0,0,20.47,6.18Z"/><path class="nav-icon-svg-outer" d="M15.23,12.45v5.43H3.5V3.5H9.84a6.19,6.19,0,0,1,2-2.5H3.43A2.43,2.43,0,0,0,1,3.43V18a2.43,2.43,0,0,0,2.43,2.43H15.3A2.43,2.43,0,0,0,17.73,18V12.06a6.63,6.63,0,0,1-2.24.39Z"/><rect class="nav-icon-svg-outer" x="7.53" y="15.66" width="3.66" height="1.18" rx="0.3" ry="0.3"/></svg>
